<svg width="100" height="93" viewBox="0 0 100 93" fill="none" xmlns="http://www.w3.org/2000/svg">
<rect width="100" height="93" rx="30" fill="#1E3A8A"/>
<path d="M25.3711 67.0742V38.3389C25.3711 34.4717 26.5796 31.2938 28.9966 28.8052C31.5389 26.2091 34.8511 24.9111 38.9331 24.9111C42.6213 24.9111 45.7633 26.2091 48.3594 28.8052C49.0039 29.4497 49.4873 30.0763 49.8096 30.6851C50.2214 30.0584 50.7227 29.4587 51.3135 28.8857C54.0169 26.236 57.1411 24.9111 60.686 24.9111C64.6965 24.9111 68.0086 26.2091 70.6226 28.8052C73.0396 31.2043 74.248 34.3822 74.248 38.3389V64.6572L69.1455 67.0742H68.877V36.459C68.877 34.0599 68.2324 32.1174 66.9434 30.6313C65.3499 28.7873 63.2642 27.8652 60.686 27.8652C58.1079 27.8652 56.0221 28.7873 54.4287 30.6313C53.1396 32.1174 52.4951 34.0599 52.4951 36.459V64.6572L47.3926 67.0742H47.124V36.459C47.124 34.0599 46.4795 32.1174 45.1904 30.6313C43.597 28.7873 41.5112 27.8652 38.9331 27.8652C36.355 27.8652 34.2692 28.7873 32.6758 30.6313C31.3867 32.1174 30.7422 34.0599 30.7422 36.459V64.6572L25.6396 67.0742H25.3711Z" fill="#F9F6F2"/>
</svg>
